/* XPM */
static const char *icon[] = {
/* columns rows colors chars-per-pixel */
"64 64 3 1 ",
"  c black",
"f c None",
"- c #dddddd",
/* pixels */
"ffffffffffffffffffffffffffffffffffffffffffffffffffffffffffffffff",
"ffffffffffffffffffffffffffffffffffffffffffffffffffffffffffffffff",
"ffffffffffffffffffffffffffffffffffffffffffffffffffffffffffffffff",
"ffffffffffffffffffffffffffffffffffffffffffffffffffffffffffffffff",
"ffffffffffffffffffffffffffffffffffffffffffffffffffffffffffffffff",
"ffffffffffffffffffffffffffffffffffffffffffffffffffffffffffffffff",
"ffffffffffffffffffffffffffffffffffffffffffffffffffffffffffffffff",
"ffffffffffffffffffffffffffffffffffffffffffffffffffffffffffffffff",
"ffffffffffffffffffffffffffffffffffffffffffffffffffffffffffffffff",
"ffffffffffffffffffffffffffffffffffffffffffffffffffffffffffffffff",
"ffffffffffffffffffffffffffffffffffffffffffffffffffffffffffffffff",
"ffffffffffffffff-------ffffffffffffffffffff-------ffffffffffffff",
"fffffffffffffff--------fffffffffffffffffff--------ffffffffffffff",
"ffffffffffffff       --ffffffffffffffffff       --ffffffffffffff",
"ffffffffffffff       --ffffffffffffffffff       --ffffffffffffff",
"ffffffffffffff       --ffffffffffffffffff       --ffffffffffffff",
"ffffffffffffff       --ffffffffffffffffff       --ffffffffffffff",
"ffffffffffffff       --ffffffffffffffffff       --ffffffffffffff",
"ffffffffffffff       --ffffffffffffffffff       --ffffffffffffff",
"ffffffffffffff       --ffffffffffffffffff       --ffffffffffffff",
"ffffffffffffff       --ffffffffffffffffff       --ffffffffffffff",
"ffffffffffffff       --ffffffffffffffffff       --ffffffffffffff",
"ffffffffffffff       --ffffffffffffffffff       --ffffffffffffff",
"ffffffffffffff       --ffffffffffffffffff       --ffffffffffffff",
"ffffffffffffff       --ffffffffffffffffff       --ffffffffffffff",
"ffffffffffffff       --ffffffffffffffffff       --ffffffffffffff",
"ffffffffffffff       --ffffff--------ffff       --ffffffffffffff",
"ff------------       --fffff---------ffff       ----------------",
"f-------------       --ffff        --ffff       ----------------",
"                     --ffff        --ffff                     --",
"                     --ffff        --ffff                     --",
"                     --ffff        --ffff                     --",
"                     --ffff        --ffff                     --",
"                     --ffff        --ffff                     --",
"                     --ffff        --ffff                     --",
"                     --ffff        --ffff                     --",
"       --fffff       --ffff        --ffff       --fffff       --",
"       --fffff       --ffff        --ffff       --fffff       --",
"       --fffff       --ffff        --ffff       --fffff       --",
"       --fffff       --ffff        --ffff       --fffff       --",
"       --fffff       --ffff        --ffff       --fffff       --",
"       --fffff       --ffff        --ffff       --fffff       --",
"       -------       ------        ------       -------       --",
"       -------       ------        ------       -------       --",
"                                                              --",
"                                                              --",
"                                                              --",
"                                                              --",
"                                                              --",
"                                                              --",
"                                                              -f",
"ffffffffffffffffffffffffffffffffffffffffffffffffffffffffffffffff",
"ffffffffffffffffffffffffffffffffffffffffffffffffffffffffffffffff",
"ffffffffffffffffffffffffffffffffffffffffffffffffffffffffffffffff",
"ffffffffffffffffffffffffffffffffffffffffffffffffffffffffffffffff",
"ffffffffffffffffffffffffffffffffffffffffffffffffffffffffffffffff",
"ffffffffffffffffffffffffffffffffffffffffffffffffffffffffffffffff",
"ffffffffffffffffffffffffffffffffffffffffffffffffffffffffffffffff",
"ffffffffffffffffffffffffffffffffffffffffffffffffffffffffffffffff",
"ffffffffffffffffffffffffffffffffffffffffffffffffffffffffffffffff",
"ffffffffffffffffffffffffffffffffffffffffffffffffffffffffffffffff",
"ffffffffffffffffffffffffffffffffffffffffffffffffffffffffffffffff",
"ffffffffffffffffffffffffffffffffffffffffffffffffffffffffffffffff",
"ffffffffffffffffffffffffffffffffffffffffffffffffffffffffffffffff"
};
