/* XPM */
static const char *icon[] = {
/* columns rows colors chars-per-pixel */
"64 64 2 1 ",
"  c black",
"f c None",
/* pixels */
"ffffffffffffffffffffffffffffffffffffffffffffffffffffffffffffffff",
"ffffffffffffffffffffffffffffffffffffffffffffffffffffffffffffffff",
"ffffffffffffffffffffffffffffffffffffffffffffffffffffffffffffffff",
"ffffffffffffffffffffffffffffffffffffffffffffffffffffffffffffffff",
"ffffffffffffffffffffffffffffffffffffffffffffffffffffffffffffffff",
"ffffffffffffffffffffffffffffffffffffffffffffffffffffffffffffffff",
"ffffffffffffffffffffffffffffffffffffffffffffffffffffffffffffffff",
"ffffffffffffffffffffffffffffffffffffffffffffffffffffffffffffffff",
"ffffffffffffffffffffffffffffffffffffffffffffffffffffffffffffffff",
"ffffffffffffffffffffffffffffffffffffffffffffffffffffffffffffffff",
"ffffffffffffffffffffffffffffffffffffffffffffffffffffffffffffffff",
"ffffffffffffffffffffffffffffffffffffffffffffffffffffffffffffffff",
"ffffffffffffffffffffffffffffffffffffffffffffffffffffffffffffffff",
"ffffffffffffff        ffffffffffffffffffff        ffffffffffffff",
"ffffffffffffff        ffffffffffffffffffff        ffffffffffffff",
"ffffffffffffff        ffffffffffffffffffff        ffffffffffffff",
"ffffffffffffff        ffffffffffffffffffff        ffffffffffffff",
"ffffffffffffff        ffffffffffffffffffff        ffffffffffffff",
"ffffffffffffff        ffffffffffffffffffff        ffffffffffffff",
"ffffffffffffff        ffffffffffffffffffff        ffffffffffffff",
"ffffffffffffff        ffffffffffffffffffff        ffffffffffffff",
"ffffffffffffff        ffffffffffffffffffff        ffffffffffffff",
"ffffffffffffff        ffffffffffffffffffff        ffffffffffffff",
"ffffffffffffff        ffffffffffffffffffff        ffffffffffffff",
"ffffffffffffff        ffffffffffffffffffff        ffffffffffffff",
"ffffffffffffff        ffffffffffffffffffff        ffffffffffffff",
"ffffffffffffff        ffffffffffffffffffff        ffffffffffffff",
"ffffffffffffff        ffffffffffffffffffff        ffffffffffffff",
"                      ffffff        ffffff                      ",
"                      ffffff        ffffff                      ",
"                      ffffff        ffffff                      ",
"                      ffffff        ffffff                      ",
"                      ffffff        ffffff                      ",
"                      ffffff        ffffff                      ",
"                      ffffff        ffffff                      ",
"                      ffffff        ffffff                      ",
"        ffffff        ffffff        ffffff        ffffff        ",
"        ffffff        ffffff        ffffff        ffffff        ",
"        ffffff        ffffff        ffffff        ffffff        ",
"        ffffff        ffffff        ffffff        ffffff        ",
"        ffffff        ffffff        ffffff        ffffff        ",
"        ffffff        ffffff        ffffff        ffffff        ",
"        ffffff        ffffff        ffffff        ffffff        ",
"        ffffff        ffffff        ffffff        ffffff        ",
"                                                                ",
"                                                                ",
"                                                                ",
"                                                                ",
"                                                                ",
"                                                                ",
"                                                                ",
"                                                                ",
"ffffffffffffffffffffffffffffffffffffffffffffffffffffffffffffffff",
"ffffffffffffffffffffffffffffffffffffffffffffffffffffffffffffffff",
"ffffffffffffffffffffffffffffffffffffffffffffffffffffffffffffffff",
"ffffffffffffffffffffffffffffffffffffffffffffffffffffffffffffffff",
"ffffffffffffffffffffffffffffffffffffffffffffffffffffffffffffffff",
"ffffffffffffffffffffffffffffffffffffffffffffffffffffffffffffffff",
"ffffffffffffffffffffffffffffffffffffffffffffffffffffffffffffffff",
"ffffffffffffffffffffffffffffffffffffffffffffffffffffffffffffffff",
"ffffffffffffffffffffffffffffffffffffffffffffffffffffffffffffffff",
"ffffffffffffffffffffffffffffffffffffffffffffffffffffffffffffffff",
"ffffffffffffffffffffffffffffffffffffffffffffffffffffffffffffffff",
"ffffffffffffffffffffffffffffffffffffffffffffffffffffffffffffffff"
};
